<?xml version="1.0" standalone="no"?>
<!DOCTYPE svg PUBLIC "-//W3C//DTD SVG 20010904//EN"
 "http://www.w3.org/TR/2001/REC-SVG-20010904/DTD/svg10.dtd">
<svg version="1.0" xmlns="http://www.w3.org/2000/svg"
 width="864.000000pt" height="864.000000pt" viewBox="0 0 864.000000 864.000000"
 preserveAspectRatio="xMidYMid meet">
<metadata>
Created by potrace 1.11, written by Peter Selinger 2001-2013
</metadata>
<g transform="translate(0.000000,864.000000) scale(0.100000,-0.100000)"
fill="#000000" stroke="none">
<path d="M3983 8626 c-903 -80 -1708 -406 -2403 -975 -135 -110 -396 -365
-517 -506 -588 -681 -942 -1512 -1035 -2425 -17 -166 -16 -619 0 -795 132
-1376 907 -2607 2081 -3307 909 -542 1969 -733 3006 -543 571 105 1124 331
1618 659 48 32 89 57 91 55 4 -4 96 -753 96 -778 0 -11 12 -12 58 -7 31 3 138
13 237 21 511 41 1280 107 1284 111 3 3 23 216 86 934 14 162 33 369 41 459
l15 165 -266 266 -267 267 75 150 c241 480 387 979 442 1505 23 227 21 694 -6
923 -144 1271 -833 2398 -1901 3113 -566 379 -1247 624 -1941 698 -200 21
-606 26 -794 10z m-495 -807 c528 -57 1024 -293 1398 -664 289 -287 479 -597
597 -972 82 -258 112 -481 104 -768 -6 -220 -21 -335 -69 -528 l-32 -128 1543
-1543 1544 -1544 -7 -104 c-4 -56 -20 -247 -36 -423 -15 -176 -41 -462 -56
-635 -15 -173 -28 -316 -29 -317 -4 -7 -1446 -125 -1460 -120 -7 3 -15 35 -19
79 -20 195 -85 691 -93 698 -8 8 -57 14 -523 71 -140 17 -258 34 -261 38 -3 3
-27 182 -53 396 -26 215 -49 391 -49 392 -2 1 -414 53 -637 79 -80 10 -148 20
-151 23 -4 3 -29 181 -55 394 -44 360 -49 390 -68 397 -12 4 -102 17 -201 28
-99 12 -272 33 -385 46 l-204 25 -226 226 -226 226 -84 -20 c-316 -75 -721
-73 -1050 5 -762 179 -1381 713 -1665 1438 -58 149 -118 383 -141 546 -36 266
-18 607 46 868 109 443 324 819 651 1138 371 360 828 581 1339 648 128 17 426
20 558 5z"/>
<path d="M3030 7499 c-386 -38 -766 -193 -1070 -436 -88 -70 -250 -233 -316
-318 -474 -609 -561 -1432 -224 -2120 104 -212 234 -389 411 -560 104 -101
187 -161 287 -208 62 -30 75 -32 173 -32 100 0 108 2 173 35 81 40 190 139
282 254 35 44 131 178 211 296 459 671 644 864 1193 1242 448 309 508 354 614
469 112 121 158 247 136 371 -24 134 -132 302 -291 453 -310 295 -681 477
-1097 540 -126 19 -361 26 -482 14z m425 -69 c166 -19 380 -78 545 -150 340
-149 691 -451 804 -690 27 -57 30 -76 31 -155 0 -79 -3 -97 -29 -149 -35 -71
-140 -185 -251 -271 -44 -34 -190 -138 -325 -230 -661 -453 -844 -636 -1280
-1275 -85 -124 -187 -268 -227 -321 -96 -126 -213 -238 -289 -275 -51 -25 -70
-29 -144 -29 -77 0 -92 4 -160 36 -95 45 -162 96 -273 207 -323 318 -516 717
-568 1172 -18 157 -6 424 25 577 92 452 328 845 681 1133 260 212 600 364 915
409 41 6 86 13 100 15 56 8 361 5 445 -4z"/>
<path d="M2665 7070 c-436 -92 -839 -453 -989 -887 -175 -507 28 -964 480
-1079 509 -129 1142 243 1382 811 63 151 85 253 86 415 1 113 -3 160 -18 215
-73 274 -261 461 -528 525 -109 26 -287 26 -413 0z"/>
</g>
</svg>
